#!OML:ASF H:\Male1\Project 1\Capture day 1\Session 1\Male1.ASF
:FULLY-SPECIFIED
:DEGREES
373
root 16.1606 15.4578 -0.49477 -538.188 -95.2239 533.507
lowerback 7.4761 1.33796 1.78797
upperback 5.46543 1.71438 -0.0572012
thorax 1.51295 0.839478 -1.16452
lowerneck -12.2291 1.93765 4.51836
upperneck 15.5198 1.82026 -0.820679
head 6.80648 1.03789 -0.838878
rclavicle 2.3761e-015 3.16813e-015
rhumerus -29.287 7.75311 -90.0209
rradius 34.865
rwrist -19.4691
rhand -17.49 -2.09232
rfingers 7.12502
rthumb 8.76247 -31.8904
lclavicle 2.3761e-015 3.16813e-015
lhumerus -27.9125 -0.873983 85.5022
lradius 26.8923
lwrist -5.68875
lhand -16.1581 15.522
lfingers 7.12502
lthumb 10.0476 45.2622
rfemur 3.18265 4.86815 28.2791
rtibia 21.247
rfoot -26.5241 -26.4076
rtoes -10.7872
lfemur -21.8594 -10.1024 -18.9713
ltibia 36.2992
lfoot -17.4767 17.8758
ltoes -11.6145
374
root 16.3681 15.4575 -0.494758 -536.958 -95.2498 532.249
lowerback 7.31062 1.25055 1.96327
upperback 5.46235 1.60584 -0.0140418
thorax 1.6017 0.790732 -1.20811
lowerneck -12.5054 1.96085 4.39485
upperneck 15.8773 1.838 -0.712501
head 6.96825 1.05007 -0.77979
rclavicle 3.64832e-014 -7.87684e-015
rhumerus -29.7623 7.28473 -89.7457
rradius 34.3797
rwrist -19.4705
rhand -17.8952 -1.7142
rfingers 7.12502
rthumb 8.37145 -31.5283
lclavicle 3.64832e-014 -7.87684e-015
lhumerus -27.6489 -1.03325 85.7146
lradius 27.0282
lwrist -5.48564
lhand -16.1334 15.3066
lfingers 7.12502
lthumb 10.0715 45.0456
rfemur 1.94285 5.16797 28.2653
rtibia 22.1366
rfoot -26.5251 -26.4458
rtoes -11.023
lfemur -21.2918 -9.04481 -19.1499
ltibia 39.0181
lfoot -17.5207 16.7856
ltoes -11.2716
375
root 16.5745 15.4469 -0.506415 -536.058 -95.0506 531.142
lowerback 7.344 1.24217 1.86642
upperback 5.47274 1.58827 0.0682584
thorax 1.58786 0.777104 -1.06885
lowerneck -12.5882 1.96584 4.40777
upperneck 16.0001 1.86208 -0.85291
head 7.02428 1.05065 -0.824369
rclavicle -5.8921e-015 -2.6339e-015
rhumerus -30.31 6.69347 -89.4076
rradius 33.948
rwrist -19.2051
rhand -17.8388 -1.56632
rfingers 7.12502
rthumb 8.42593 -31.3782
lclavicle -5.8921e-015 -2.6339e-015
lhumerus -27.3698 -1.43753 86.0103
lradius 27.1944
lwrist -4.86943
lhand -16.3222 14.386
lfingers 7.12502
lthumb 9.88928 44.1337
rfemur 0.837595 6.083 28.4101
rtibia 23.1596
rfoot -27.0507 -26.5619
rtoes -9.48
lfemur -20.4292 -7.8554 -19.201
ltibia 41.7723
lfoot -17.5137 15.3662
ltoes -11.1759
376
root 16.7808 15.4375 -0.507999 -540.242 -94.982 535.374
lowerback 7.15401 1.20277 1.52737
upperback 5.36997 1.52326 -0.0954634
thorax 1.57804 0.740056 -1.04098
lowerneck -12.5595 1.98016 4.59021
upperneck 16.0068 1.87185 -0.996711
head 7.02509 1.05358 -0.900149
rclavicle -5.86259e-015 3.91357e-015
rhumerus -30.9264 5.90076 -89.114
rradius 33.5273
rwrist -18.6416
rhand -17.4651 -1.58229
rfingers 7.12502
rthumb 8.78652 -31.3794
lclavicle -5.86259e-015 3.91357e-015
lhumerus -27.2385 -2.34605 86.2901
lradius 27.6444
lwrist -3.85413
lhand -16.5033 13.3363
lfingers 7.12502
lthumb 9.71463 43.0922
rfemur -0.542336 6.60284 27.9023
rtibia 24.207
rfoot -27.4497 -26.4967
rtoes -8.16387
lfemur -19.5938 -6.86074 -19.7453
ltibia 44.4418
lfoot -17.3323 14.0286
ltoes -12.9284
377
root 16.987 15.4291 -0.506003 -542.952 -94.7837 538.169
lowerback 6.94084 1.19646 1.30163
upperback 5.24324 1.50931 -0.22771
thorax 1.56076 0.731378 -1.04674
lowerneck -12.6267 2.00432 4.59782
upperneck 16.1739 1.87657 -0.888922
head 7.09059 1.06612 -0.86551
rclavicle 2.68126e-014 -4.78326e-015
rhumerus -31.5554 5.32614 -88.8492
rradius 33.1103
rwrist -18.3424
rhand -17.4157 -1.43426
rfingers 7.12502
rthumb 8.83426 -31.2293
lclavicle 2.68126e-014 -4.78326e-015
lhumerus -27.1936 -3.21085 86.5447
lradius 28.163
lwrist -3.24943
lhand -16.2634 14.5354
lfingers 7.12502
lthumb 9.94602 44.2804
rfemur -1.93868 7.13054 27.499
rtibia 25.0907
rfoot -27.637 -26.4945
rtoes -7.62813
lfemur -18.6178 -5.87957 -20.0853
ltibia 47.0329
lfoot -17.1582 12.8689
ltoes -14.0508
378
root 17.1932 15.4166 -0.50326 -540.812 -94.4649 535.9
lowerback 6.82968 1.20808 1.37179
upperback 5.20353 1.52901 -0.175893
thorax 1.58214 0.743128 -1.03178
lowerneck -12.613 2.02135 4.41437
upperneck 16.3092 1.8878 -0.640153
head 7.12836 1.08235 -0.753695
rclavicle 9.93613e-015 -1.70209e-015
rhumerus -32.1475 4.80357 -88.5108
rradius 32.7787
rwrist -18.1152
rhand -17.4342 -1.41759
rfingers 7.12502
rthumb 8.81633 -31.2134
lclavicle 9.93613e-015 -1.70209e-015
lhumerus -27.2278 -3.79748 86.818
lradius 28.7651
lwrist -3.22713
lhand -16.7887 14.7548
lfingers 7.12502
lthumb 9.43924 44.5234
rfemur -3.02821 7.69018 27.5746
rtibia 25.773
rfoot -27.7142 -26.4745
rtoes -7.33358
lfemur -17.2747 -4.9514 -19.8984
ltibia 49.4406
lfoot -16.9274 12.0427
ltoes -14.9235
379
root 17.4075 15.4119 -0.500917 -535.896 -94.5305 530.987
lowerback 6.57841 1.07922 1.59618
upperback 5.16666 1.36755 -0.0321679
thorax 1.68067 0.668025 -0.996692
lowerneck -12.5193 2.05187 4.38414
upperneck 16.2225 1.93544 -0.610036
head 7.08441 1.1054 -0.735097
rclavicle -8.65335e-015 5.46658e-016
rhumerus -32.6443 4.24204 -88.1035
rradius 32.5357
rwrist -17.966
rhand -17.1793 -1.51669
rfingers 7.12502
rthumb 9.06233 -31.302
lclavicle -8.65335e-015 5.46658e-016
lhumerus -27.1978 -4.29371 87.1215
lradius 29.4509
lwrist -3.20305
lhand -17.4436 15.0497
lfingers 7.12502
lthumb 8.80726 44.8459
rfemur -4.14409 7.92937 27.7919
rtibia 26.2069
rfoot -27.5441 -26.456
rtoes -6.9305
lfemur -15.9777 -4.50644 -19.4433
ltibia 51.5667
lfoot -16.5601 11.4481
ltoes -16.3957
380
root 17.6205 15.4109 -0.497765 -536.09 -94.5178 531.06
lowerback 6.46118 0.982257 1.42749
upperback 5.17127 1.22958 -0.0242573
thorax 1.74185 0.594927 -0.885296
lowerneck -12.3675 1.98859 4.20818
upperneck 16.2643 1.85533 -0.432319
head 7.06578 1.07109 -0.657871
rclavicle -1.28216e-014 4.07509e-015
rhumerus -33.0834 3.67311 -87.7292
rradius 32.2359
rwrist -17.9845
rhand -16.8552 -1.85902
rfingers 7.12502
rthumb 9.37506 -31.6305
lclavicle -1.28216e-014 4.07509e-015
lhumerus -26.9105 -4.92986 87.4351
lradius 29.7583
lwrist -2.85765
lhand -17.3569 14.5923
lfingers 7.12502
lthumb 8.89095 44.385
rfemur -4.94163 7.9951 27.5409
rtibia 26.353
rfoot -27.1509 -26.2026
rtoes -6.4923
lfemur -14.18 -4.12405 -19.422
ltibia 53.2766
lfoot -16.1707 10.8237
ltoes -18.0656
381
root 17.828 15.4093 -0.493403 -539.811 -94.3731 534.574
lowerback 6.40732 0.924209 0.946242
upperback 5.17735 1.13078 -0.110039
thorax 1.76623 0.53368 -0.698424
lowerneck -12.6546 2.11301 4.24165
upperneck 16.7171 1.9609 -0.251532
head 7.26531 1.14161 -0.591058
rclavicle 2.09221e-014 -5.1684e-015
rhumerus -33.533 3.24667 -87.4589
rradius 31.9243
rwrist -17.9525
rhand -16.8296 -2.34213
rfingers 7.12502
rthumb 9.39979 -32.1125
lclavicle 2.09221e-014 -5.1684e-015
lhumerus -26.555 -5.59632 87.7153
lradius 29.8442
lwrist -2.57886
lhand -17.8703 14.1782
lfingers 7.12502
lthumb 8.39552 43.9913
rfemur -5.51905 8.0528 26.9941
rtibia 26.2514
rfoot -26.5595 -25.9568
rtoes -6.55412
lfemur -11.9357 -3.70719 -19.6768
ltibia 54.5237
lfoot -15.7668 9.80514
ltoes -19.3745
382
root 18.0336 15.4193 -0.485789 -539.515 -94.2525 534.1
lowerback 6.28775 0.818437 0.671103
upperback 5.1737 0.977162 -0.0311752
thorax 1.81888 0.448228 -0.454452
lowerneck -12.7343 2.15934 4.1252
upperneck 17.128 1.99298 -0.0471609
head 7.41133 1.16881 -0.500671
rclavicle -1.29148e-014 1.73937e-015
rhumerus -33.9455 3.10088 -87.1376
rradius 31.6132
rwrist -17.9041
rhand -16.9731 -2.51644
rfingers 7.12502
rthumb 9.26133 -32.293
lclavicle -1.29148e-014 1.73937e-015
lhumerus -26.2833 -6.0287 88.053
lradius 29.9616
lwrist -2.4993
lhand -18.417 13.0552
lfingers 7.12502
lthumb 7.86789 42.8888
rfemur -6.10789 8.16772 26.7935
rtibia 26.065
rfoot -25.8413 -26.0029
rtoes -7.39925
lfemur -9.71108 -3.406 -19.5446
ltibia 55.3402
lfoot -15.1556 8.42868
ltoes -20.5502
383
root 18.2406 15.4387 -0.478085 -538.088 -94.112 532.633
lowerback 6.05112 0.738622 0.442636
upperback 5.12076 0.86329 0.0634901
thorax 1.88829 0.384896 -0.221478
lowerneck -12.6812 2.0185 3.8996
upperneck 17.5789 1.77015 0.267953
head 7.54012 1.07634 -0.383162
rclavicle -7.47927e-015 2.48481e-016
rhumerus -34.2959 2.65456 -86.6941
rradius 31.1948
rwrist -17.7528
rhand -16.9766 -2.29025
rfingers 7.12502
rthumb 9.25787 -32.067
lclavicle -7.47927e-015 2.48481e-016
lhumerus -25.9864 -6.60702 88.4525
lradius 29.9189
lwrist -2.12882
lhand -18.1988 13.7686
lfingers 7.12502
lthumb 8.07848 43.5942
rfemur -6.81353 8.51886 26.6798
rtibia 25.8484
rfoot -25.1472 -26.2543
rtoes -8.16988
lfemur -7.6732 -3.0726 -19.304
ltibia 55.7506
lfoot -14.2263 7.01129
ltoes -23.2007
384
root 18.4431 15.4467 -0.46791 -541.282 -93.8928 535.941
lowerback 5.62879 0.753447 0.0203983
upperback 4.99095 0.876446 -0.0780333
thorax 1.9836 0.385695 -0.126559
lowerneck -13.0984 2.05402 4.09107
upperneck 18.5051 1.6852 0.473665
head 7.92087 1.07208 -0.350106
rclavicle 8.41108e-015 1.19271e-015
rhumerus -34.6791 1.78144 -86.3551
rradius 30.7037
rwrist -17.5371
rhand -16.9495 -2.01484
rfingers 7.12502
rthumb 9.28411 -31.7904
lclavicle 8.41108e-015 1.19271e-015
lhumerus -25.7323 -7.68572 88.7522
lradius 29.9055
lwrist -1.75542
lhand -17.6849 15.1701
lfingers 7.12502
lthumb 8.57439 44.976
rfemur -7.64522 8.90156 26.1598
rtibia 25.5853
rfoot -24.3469 -26.3918
rtoes -8.22707
lfemur -5.55653 -2.70549 -19.4691
ltibia 55.661
lfoot -13.3888 5.26551
ltoes -25.9966
385
root 18.6508 15.4396 -0.455795 -544.027 -93.8042 538.694
lowerback 5.30889 0.709619 -0.343158
upperback 4.92285 0.812838 -0.204799
thorax 2.08729 0.347749 -0.047508
lowerneck -13.3239 1.85929 3.69281
upperneck 19.2802 1.28885 1.27434
head 8.20575 0.936274 -0.0577799
rclavicle 3.04389e-015 -9.93923e-016
rhumerus -34.9493 1.12655 -86.1165
rradius 30.2928
rwrist -17.4893
rhand -16.9602 -1.98908
rfingers 7.12502
rthumb 9.27375 -31.7651
lclavicle 3.04389e-015 -9.93923e-016
lhumerus -25.4117 -8.61953 88.97
lradius 29.9652
lwrist -1.91134
lhand -16.9997 15.768
lfingers 7.12502
lthumb 9.2356 45.5457
rfemur -8.4371 9.01363 25.6685
rtibia 25.3819
rfoot -23.7616 -26.2528
rtoes -7.18222
lfemur -3.23743 -2.61849 -19.6633
ltibia 55.0706
lfoot -12.6261 3.18326
ltoes -27.9018
386
root 18.861 15.4302 -0.44035 -544.696 -93.6705 539.281
lowerback 5.00836 0.621531 -0.640207
upperback 4.94828 0.689452 -0.192261
thorax 2.27746 0.277153 0.138864
lowerneck -13.7545 1.8626 3.52671
upperneck 20.0912 1.19528 1.63143
head 8.55382 0.921575 0.0856918
rclavicle -8.23714e-015 2.08724e-015
rhumerus -35.0941 0.729304 -85.8069
rradius 29.9774
rwrist -17.5192
rhand -16.8918 -2.00523
rfingers 7.12502
rthumb 9.3397 -31.7783
lclavicle -8.23714e-015 2.08724e-015
lhumerus -24.9978 -9.10284 89.2234
lradius 29.918
lwrist -2.36132
lhand -18.7083 13.496
lfingers 7.12502
lthumb 7.58675 43.3399
rfemur -9.27898 8.99475 25.3242
rtibia 25.4533
rfoot -23.5269 -25.8695
rtoes -5.97637
lfemur -0.761673 -2.64698 -19.7953
ltibia 53.8788
lfoot -11.6304 0.802143
ltoes -28.1554
